# xmcd
# 
# Track frame offsets:
#     182
#     27610
#     48637
#     77735
#     98670
#     119800
#     143285
#     162775
#     181045
#     195325
# 
# Disc length: 2768
# 
# Revision: 1
# Processed by: cddbd v1.5.2PL0 Copyright (c) Steve Scherf et al.
# Submitted via: BonkEnc v1.0.8
# 
DISCID=7a0ace0a
DTITLE=Michel Benita, Andy Sheppard, Sylvain Luc, Bobby Thomas - Lower The Walls
DYEAR=1998
DGENRE=Contemporary Jazz
TTITLE0=Amarante
TTITLE1=Lower The Walls
TTITLE2=Sweet Attack
TTITLE3=Nû Line
TTITLE4=Yesterday In Paradise
TTITLE5=Nowhere Land
TTITLE6=The Switch
TTITLE7=Peter, Ben and Susan
TTITLE8=Bass Trip
TTITLE9=I Want To Vanish
EXTD=YEAR: 1999
EXTT0=
EXTT1=
EXTT2=
EXTT3=
EXTT4=
EXTT5=
EXTT6=
EXTT7=
EXTT8=
EXTT9=
PLAYORDER=
